PathFileType	3	(X/Y/Z)	walking_1__view2_aligned.trc
DataRate	CameraRate	NumFrames	NumMarkers	Units	OrigDataRate	OrigDataStartFrame	OrigNumFrames
100.0	100.0	12	19	mm	100.0	3816	6105
Frame#	Time	pelvis			neck			head			hip_left			hip_right			knee_left			knee_right			ankle_left			ankle_right			heel_left			heel_right			toe_left			toe_right			shoulder_left			shoulder_right			elbow_left			elbow_right			wrist_left			wrist_right			
		X1	Y1	Z1	X2	Y2	Z2	X3	Y3	Z3	X4	Y4	Z4	X5	Y5	Z5	X6	Y6	Z6	X7	Y7	Z7	X8	Y8	Z8	X9	Y9	Z9	X10	Y10	Z10	X11	Y11	Z11	X12	Y12	Z12	X13	Y13	Z13	X14	Y14	Z14	X15	Y15	Z15	X16	Y16	Z16	X17	Y17	Z17	X18	Y18	Z18	X19	Y19	Z19	
3816	38.15000	64.245805	941.562910	115.743592	49.170111	1511.400671	158.994112	35.976455	1623.603040	293.513169	142.421805	947.337933	111.315071	-13.930630	935.787928	120.172069	164.921830	504.412995	135.940530	-64.407324	541.782277	319.463046	157.745503	78.817909	67.952178	-97.839248	216.881994	116.598826	150.590745	27.204634	33.174912	-97.631138	193.069723	69.028618	160.559366	20.320027	262.400564	-112.063408	91.496765	234.185950	224.489688	1455.812858	116.608498	-125.042849	1450.079514	133.324104	305.872637	1168.450131	94.015248	-175.480194	1157.448318	128.795712	351.931620	909.863353	156.264221	-174.576461	915.981484	226.460745
3817	38.16000	65.155724	941.857078	114.776546	49.350579	1511.550868	158.692348	35.061729	1623.874351	292.895693	143.371506	947.745873	110.771798	-13.060542	935.968330	118.781247	165.780710	504.215143	129.653481	-64.788998	543.652620	324.353928	158.958312	78.562427	56.673103	-98.621866	215.813747	130.088959	151.976451	27.064593	21.350004	-98.359993	191.155056	83.302928	161.362931	19.043454	251.361736	-113.575088	93.390847	249.594664	225.148556	1456.364786	118.583918	-124.365127	1450.256386	130.849870	307.011707	1169.162864	98.065841	-174.077643	1157.313158	122.244578	350.885277	911.631178	165.026160	-175.672098	913.300380	214.500691
3818	38.17000	64.580034	941.969765	113.457576	48.396322	1511.393252	158.461597	33.205678	1623.863303	292.431445	142.755294	947.818016	109.664319	-13.595708	936.121559	117.250784	164.959474	503.859700	123.984039	-65.489585	544.933149	326.476994	158.010831	79.773764	46.391984	-99.027449	212.697518	142.420862	151.134696	28.620909	10.644886	-98.770750	186.746103	96.553090	160.103548	19.213294	240.547054	-114.011158	94.249689	265.186680	224.615049	1456.393701	120.447607	-124.949556	1450.133749	128.788370	306.795257	1169.597150	101.314887	-174.168359	1157.475054	116.706760	347.522255	913.444096	172.276992	-178.469138	911.729345	203.184183
3819	38.18000	64.004345	942.082451	112.138606	47.442065	1511.235637	158.230847	31.349627	1623.852256	291.967197	142.139083	947.890160	108.556840	-14.130875	936.274789	115.720322	164.138238	503.504256	118.314596	-66.190172	546.213677	328.600060	157.063350	80.985101	36.110865	-99.433032	209.581289	154.752766	150.292940	30.177224	-0.060232	-99.181507	182.337151	109.803251	158.844166	19.383134	229.732371	-114.447228	95.108531	280.778697	224.081542	1456.422616	122.311295	-125.533985	1450.011111	126.726869	306.578806	1170.031436	104.563933	-174.259076	1157.636951	111.168942	344.159233	915.257014	179.527824	-181.266177	910.158310	191.867675
3820	38.19000	63.428656	942.195137	110.819635	46.487809	1511.078022	158.000097	29.493575	1623.841208	291.502949	141.522871	947.962303	107.449361	-14.666042	936.428018	114.189860	163.317002	503.148813	112.645154	-66.890758	547.494206	330.723127	156.115869	82.196438	25.829746	-99.838614	206.465059	167.084669	149.451184	31.733540	-10.765350	-99.592265	177.928199	123.053413	157.584783	19.552974	218.917689	-114.883299	95.967374	296.370713	223.548035	1456.451531	124.174984	-126.118415	1449.888474	124.665368	306.362356	1170.465722	107.812979	-174.349792	1157.798848	105.631124	340.796211	917.069932	186.778655	-184.063216	908.587275	180.551167
3821	38.20000	62.852967	942.307824	109.500665	45.533552	1510.920406	157.769347	27.637524	1623.830160	291.038701	140.906660	948.034446	106.341882	-15.201208	936.581247	112.659397	162.495766	502.793369	106.975712	-67.591345	548.774734	332.846193	155.168388	83.407775	15.548627	-100.244197	203.348830	179.416572	148.609428	33.289855	-21.470468	-100.003022	173.519246	136.303574	156.325401	19.722814	208.103006	-115.319369	96.826216	311.962730	223.014527	1456.480446	126.038672	-126.702844	1449.765836	122.603868	306.145905	1170.900008	111.062025	-174.440509	1157.960744	100.093305	337.433188	918.882850	194.029487	-186.860256	907.016240	169.234659
3822	38.21000	62.277278	942.420510	108.181695	44.579295	1510.762791	157.538597	25.781473	1623.819113	290.574453	140.290448	948.106589	105.234403	-15.736375	936.734477	111.128935	161.674530	502.437926	101.306270	-68.291932	550.055262	334.969259	154.220907	84.619112	5.267508	-100.649780	200.232600	191.748476	147.767672	34.846171	-32.175586	-100.413779	169.110294	149.553736	155.066018	19.892654	197.288324	-115.755440	97.685058	327.554746	222.481020	1456.509361	127.902360	-127.287273	1449.643199	120.542367	305.929455	1171.334294	114.311071	-174.531225	1158.122641	94.555487	334.070166	920.695768	201.280318	-189.657295	905.445205	157.918152
3823	38.22000	61.701589	942.533196	106.862725	43.625038	1510.605175	157.307847	23.925422	1623.808065	290.110205	139.674237	948.178733	104.126924	-16.271542	936.887706	109.598472	160.853293	502.082482	95.636827	-68.992519	551.335791	337.092325	153.273426	85.830449	-5.013611	-101.055363	197.116371	204.080379	146.925916	36.402486	-42.880704	-100.824537	164.701342	162.803897	153.806636	20.062494	186.473642	-116.191510	98.543900	343.146762	221.947513	1456.538277	129.766049	-127.871703	1449.520561	118.480866	305.713004	1171.768580	117.560117	-174.621941	1158.284538	89.017669	330.707144	922.508686	208.531150	-192.454334	903.874170	146.601644
3824	38.23000	61.125900	942.645883	105.543754	42.670782	1510.447560	157.077097	22.069371	1623.797018	289.645957	139.058026	948.250876	103.019445	-16.806709	937.040936	108.068010	160.032057	501.727039	89.967385	-69.693106	552.616319	339.215392	152.325945	87.041786	-15.294729	-101.460945	194.000142	216.412282	146.084161	37.958801	-53.585822	-101.235294	160.292389	176.054059	152.547253	20.232334	175.658959	-116.627581	99.402743	358.738779	221.414006	1456.567192	131.629737	-128.456132	1449.397924	116.419366	305.496554	1172.202866	120.809162	-174.712658	1158.446434	83.479851	327.344122	924.321604	215.781982	-195.251374	902.303136	135.285136
3825	38.24000	60.550211	942.758569	104.224784	41.716525	1510.289945	156.846347	20.213320	1623.785970	289.181709	138.441814	948.323019	101.911966	-17.341875	937.194165	106.537548	159.210821	501.371595	84.297943	-70.393693	553.896848	341.338458	151.378464	88.253123	-25.575848	-101.866528	190.883912	228.744186	145.242405	39.515117	-64.290940	-101.646051	155.883437	189.304221	151.287871	20.402174	164.844277	-117.063651	100.261585	374.330795	220.880499	1456.596107	133.493425	-129.040561	1449.275286	114.357865	305.280103	1172.637152	124.058208	-174.803374	1158.608331	77.942032	323.981099	926.134522	223.032813	-198.048413	900.732101	123.968628
3826	38.25000	59.974521	942.871255	102.905814	40.762268	1510.132329	156.615597	18.357269	1623.774922	288.717461	137.825603	948.395163	100.804487	-17.877042	937.347394	105.007085	158.389585	501.016152	78.628500	-71.094280	555.177376	343.461524	150.430983	89.464460	-35.856967	-102.272111	187.767683	241.076089	144.400649	41.071432	-74.996058	-102.056809	151.474485	202.554382	150.028488	20.572013	154.029594	-117.499721	101.120427	389.922812	220.346992	1456.625022	135.357114	-129.624991	1449.152649	112.296364	305.063653	1173.071438	127.307254	-174.894091	1158.770228	72.404214	320.618077	927.947440	230.283645	-200.845452	899.161066	112.652120
3827	38.26000	59.398832	942.983942	101.586843	39.808012	1509.974714	156.384847	16.501218	1623.763875	288.253213	137.209391	948.467306	99.697008	-18.412209	937.500624	103.476623	157.568349	500.660708	72.959058	-71.794867	556.457905	345.584591	149.483502	90.675797	-46.138086	-102.677694	184.651454	253.407992	143.558893	42.627748	-85.701176	-102.467566	147.065532	215.804544	148.769106	20.741853	143.214912	-117.935792	101.979269	405.514828	219.813484	1456.653937	137.220802	-130.209420	1449.030011	110.234864	304.847202	1173.505724	130.556300	-174.984807	1158.932124	66.866396	317.255055	929.760358	237.534477	-203.642491	897.590031	101.335612
